<?xml version="1.0" encoding="utf-8"?>
<!-- Generator: Adobe Illustrator 23.0.6, SVG Export Plug-In . SVG Version: 6.00 Build 0)  -->
<svg version="1.1" xmlns="http://www.w3.org/2000/svg" xmlns:xlink="http://www.w3.org/1999/xlink" x="0px" y="0px"
	 viewBox="0 0 1536 800" style="enable-background:new 0 0 1536 800;" xml:space="preserve">
<style type="text/css">
	.st0{enable-background:new    ;}
	.st1{display:none;}
	.st2{display:inline;}
	.st3{fill:#091F46;}
	.st4{fill:#FFFFFF;}
	.st5{display:none;fill:#FF1746;stroke:#FFFFFF;stroke-width:4;stroke-miterlimit:100;}
	.st6{fill:#FF1746;stroke:#FFFFFF;stroke-width:4;stroke-miterlimit:100;}
	.st7{display:inline;fill:none;stroke:#FFFFFF;stroke-width:4;stroke-miterlimit:100;}
	.st8{display:inline;fill:#FF1746;stroke:#FFFFFF;stroke-width:4;stroke-miterlimit:100;}
	.st9{display:inline;fill:#FF1746;stroke:#FF456B;stroke-width:4;stroke-miterlimit:100;}
	.st10{fill:none;stroke:#FFFFFF;stroke-width:8;stroke-miterlimit:100;}
	.st11{fill:#FF0000;}
	.st12{fill:#FDFDFE;stroke:#FFFFFF;stroke-width:17.0079;stroke-miterlimit:100;}
	.st13{fill:#091F46;stroke:#091F46;stroke-width:17.0079;stroke-miterlimit:100;}
	.st14{display:none;fill:#091F46;stroke:#091F46;stroke-width:17.0079;stroke-miterlimit:100;}
	.st15{fill:#FF1746;stroke:#FF1746;stroke-width:11.3386;stroke-miterlimit:100;}
</style>
<g id="Left_R">
</g>
<g id="Artboard_1_1_" class="st0">
	<g id="Ellipse" class="st1">
		<g class="st2">
			<path class="st3" d="M637.7,650.7c-63.04,0-122.3-24.55-166.88-69.12C426.25,537,401.7,477.74,401.7,414.7
				s24.55-122.3,69.12-166.88c44.57-44.57,103.84-69.12,166.88-69.12c63.04,0,122.3,24.55,166.88,69.12
				c44.58,44.57,69.12,103.84,69.12,166.88S849.15,537,804.58,581.58C760,626.15,700.74,650.7,637.7,650.7z"/>
		</g>
		<g class="st2">
			<path class="st4" d="M637.7,182.7c31.32,0,61.71,6.13,90.3,18.23c27.63,11.68,52.44,28.41,73.75,49.72
				c21.31,21.31,38.04,46.12,49.72,73.75c12.1,28.6,18.23,58.98,18.23,90.3s-6.13,61.71-18.23,90.3
				c-11.68,27.63-28.41,52.44-49.72,73.75c-21.31,21.31-46.12,38.04-73.75,49.72c-28.6,12.1-58.98,18.23-90.3,18.23
				c-31.32,0-61.71-6.13-90.3-18.23c-27.63-11.68-52.44-28.41-73.75-49.72c-21.31-21.31-38.04-46.12-49.72-73.75
				c-12.1-28.6-18.23-58.98-18.23-90.3s6.13-61.71,18.23-90.3c11.68-27.63,28.41-52.44,49.72-73.75
				c21.31-21.31,46.12-38.04,73.75-49.72C575.99,188.83,606.38,182.7,637.7,182.7 M637.7,174.7c-132.55,0-240,107.45-240,240
				s107.45,240,240,240c132.55,0,240-107.45,240-240S770.25,174.7,637.7,174.7L637.7,174.7z"/>
		</g>
	</g>
	<g id="Shape_2" class="st1">
		<g class="st2">
			<path class="st3" d="M525.19,522.71c-2.92,2.93-5.66,5.68-8.21,8.24L525.19,522.71z M550.32,497.48l-12.46,12.51
				C541.81,506.02,545.98,501.84,550.32,497.48z M675.58,371.78l5.89-5.91C679.52,367.83,677.56,369.8,675.58,371.78z
				 M637.26,410.24c12.92-12.97,25.84-25.93,38.33-38.46l-86.13,86.43C604.82,442.79,621.04,426.52,637.26,410.24z M576.45,471.26
				l-15.24,15.3C566.13,481.62,571.22,476.51,576.45,471.26z M515.85,532.08l-4.18,4.2C512.99,534.95,514.39,533.55,515.85,532.08z
				 M588.33,459.34l-11.88,11.92C580.34,467.36,584.3,463.38,588.33,459.34z M501.87,546.1c-0.63,0.63-1.21,1.21-1.74,1.75
				L501.87,546.1z M496.72,551.27c-0.21,0.21-0.37,0.37-0.49,0.49L496.72,551.27z M510.69,537.26c-1.26,1.27-2.45,2.46-3.56,3.58
				L510.69,537.26z M496.15,551.85L496,552C496,552,496.06,551.94,496.15,551.85z M561.21,486.56l-6.71,6.74
				C556.69,491.09,558.94,488.84,561.21,486.56z M504.55,543.42c-0.75,0.75-1.45,1.46-2.11,2.12L504.55,543.42z M498.47,549.52
				l-1.6,1.61C497.27,550.73,497.8,550.19,498.47,549.52z M500.14,547.85c-0.62,0.62-1.18,1.18-1.67,1.67L500.14,547.85z
				 M763.13,283.92l-3.63,3.65C760.76,286.3,761.98,285.07,763.13,283.92z M759.49,287.57l-4.03,4.04
				C756.87,290.21,758.21,288.86,759.49,287.57z M766.97,280.07c-1.19,1.2-2.48,2.48-3.84,3.86L766.97,280.07z M776.61,270.39
				L778,269C778,269,777.52,269.48,776.61,270.39z M770.86,276.17l-3.89,3.9C768.39,278.64,769.69,277.34,770.86,276.17z
				 M776.61,270.39c-0.38,0.38-0.83,0.83-1.35,1.36L776.61,270.39z M773.82,273.19l-2.65,2.66
				C772.16,274.86,773.04,273.98,773.82,273.19z M755.47,291.61l-4.44,4.45C752.57,294.52,754.04,293.05,755.47,291.61z
				 M702.19,345.08l-10.48,10.51C695.26,352.03,698.76,348.52,702.19,345.08z M749.1,298l-6.72,6.74
				C744.71,302.4,746.96,300.15,749.1,298z M714.63,332.6c4.6-4.62,9.06-9.1,13.32-13.36L714.63,332.6z M714.63,332.6
				c-2.48,2.48-4.98,5-7.54,7.57L714.63,332.6z M737.91,309.23c-2.6,2.61-5.3,5.32-8.08,8.1L737.91,309.23z M737.91,309.23
				c0.87-0.87,1.72-1.73,2.57-2.58L737.91,309.23z"/>
		</g>
		<g class="st2">
			<path class="st4" d="M778,269C778,269,778,269,778,269L778,269L778,269z M778,269L778,269L778,269L778,269z M778,269
				C778,269,778,269,778,269L778,269L778,269z M778,269L778,269C778,269,778,269,778,269L778,269z M778,269C778,269,778,269,778,269
				L778,269L778,269z M778,269l-1.39,1.39C777.5,269.5,777.98,269.02,778,269L778,269z M776.61,270.39l-0.63,0.64
				C776.21,270.8,776.42,270.58,776.61,270.39L776.61,270.39z M775.98,271.03c-0.22,0.22-0.46,0.46-0.72,0.72L775.98,271.03
				L775.98,271.03z M773.82,273.19c-0.78,0.78-1.67,1.67-2.65,2.66L773.82,273.19L773.82,273.19z M770.86,276.17
				c-1.17,1.17-2.46,2.47-3.89,3.9L770.86,276.17L770.86,276.17z M766.97,280.07l-1.01,1.01
				C766.3,280.74,766.64,280.4,766.97,280.07L766.97,280.07z M765.96,281.08c-0.9,0.9-1.84,1.85-2.83,2.84L765.96,281.08
				L765.96,281.08z M763.13,283.92l-3.63,3.65C760.76,286.3,761.98,285.07,763.13,283.92L763.13,283.92z M759.49,287.57l-3,3.01
				C757.53,289.55,758.53,288.54,759.49,287.57L759.49,287.57z M756.49,290.58c-0.34,0.34-0.68,0.68-1.03,1.03L756.49,290.58
				L756.49,290.58z M755.47,291.61c-1.38,1.38-2.79,2.8-4.27,4.28L755.47,291.61L755.47,291.61z M751.2,295.89l-0.17,0.17
				C751.09,296.01,751.14,295.95,751.2,295.89L751.2,295.89z M749.1,298l-5.65,5.67C745.4,301.72,747.29,299.82,749.1,298L749.1,298
				z M743.45,303.67c-0.35,0.35-0.71,0.71-1.07,1.07L743.45,303.67L743.45,303.67z M740.48,306.65l-2.57,2.58
				C738.78,308.36,739.63,307.5,740.48,306.65L740.48,306.65z M737.91,309.23c-2.6,2.61-5.3,5.32-8.08,8.1L737.91,309.23
				L737.91,309.23z M727.95,319.23c-4.25,4.27-8.71,8.74-13.32,13.36L727.95,319.23L727.95,319.23z M714.63,332.6
				c-1.82,1.82-3.65,3.67-5.51,5.53L714.63,332.6L714.63,332.6z M709.11,338.13l-2.03,2.04
				C707.76,339.49,708.44,338.81,709.11,338.13L709.11,338.13z M702.19,345.08l-6.2,6.22C698.08,349.2,700.15,347.13,702.19,345.08
				L702.19,345.08z M695.99,351.3c-1.42,1.42-2.84,2.85-4.28,4.29L695.99,351.3L695.99,351.3z M681.47,365.87l-5.89,5.91
				C677.56,369.8,679.52,367.83,681.47,365.87L681.47,365.87z M675.58,371.78l-78.84,79.12c13.16-13.21,26.84-26.93,40.51-40.65
				C650.18,397.27,663.1,384.31,675.58,371.78L675.58,371.78z M596.74,450.9c-2.45,2.46-4.88,4.9-7.29,7.32L596.74,450.9
				L596.74,450.9z M588.33,459.34c-4.03,4.04-7.99,8.02-11.88,11.92L588.33,459.34L588.33,459.34z M576.45,471.26
				c-4.73,4.75-9.35,9.38-13.83,13.88L576.45,471.26L576.45,471.26z M562.62,485.14l-0.29,0.29
				C562.43,485.33,562.53,485.24,562.62,485.14L562.62,485.14z M562.34,485.43c-0.06,0.06-0.12,0.12-0.18,0.18L562.34,485.43
				L562.34,485.43z M562.16,485.61l-0.1,0.1C562.09,485.67,562.13,485.64,562.16,485.61L562.16,485.61z M562.06,485.7
				c-0.12,0.12-0.24,0.24-0.36,0.36L562.06,485.7L562.06,485.7z M561.7,486.07l-0.49,0.49C561.37,486.39,561.54,486.23,561.7,486.07
				L561.7,486.07z M561.21,486.56l-6.71,6.74C556.69,491.09,558.94,488.84,561.21,486.56L561.21,486.56z M550.32,497.48
				l-12.46,12.51C541.81,506.02,545.98,501.84,550.32,497.48L550.32,497.48z M525.19,522.71c-2.92,2.93-5.66,5.68-8.21,8.24
				L525.19,522.71L525.19,522.71z M515.85,532.08l-4.1,4.12C513.05,534.89,514.42,533.52,515.85,532.08L515.85,532.08z
				 M511.75,536.19c-0.03,0.03-0.05,0.05-0.08,0.08L511.75,536.19L511.75,536.19z M510.69,537.26l-2.02,2.03
				C509.32,538.63,509.99,537.96,510.69,537.26L510.69,537.26z M508.67,539.29c-0.53,0.53-1.04,1.05-1.54,1.55L508.67,539.29
				L508.67,539.29z M504.55,543.42c-0.75,0.75-1.45,1.46-2.11,2.12L504.55,543.42L504.55,543.42z M501.87,546.1
				c-0.63,0.63-1.21,1.21-1.74,1.75L501.87,546.1L501.87,546.1z M500.14,547.85l-1.67,1.67
				C498.96,549.03,499.51,548.47,500.14,547.85L500.14,547.85z M498.47,549.52l-1.6,1.61C497.27,550.73,497.8,550.19,498.47,549.52
				L498.47,549.52z M496.72,551.27c-0.16,0.16-0.28,0.28-0.39,0.39L496.72,551.27L496.72,551.27z M496.34,551.66l-0.1,0.1
				C496.27,551.73,496.3,551.7,496.34,551.66L496.34,551.66z M496.15,551.85C496.06,551.94,496,552,496,552L496.15,551.85
				L496.15,551.85z M496,552L496,552C496,552,496,552,496,552L496,552z"/>
		</g>
	</g>
	<g id="Shape_3" class="st1">
	</g>
	<g id="Shape_2_1_" class="st1">
		<g class="st2">
			<path class="st3" d="M549.28,323.25l-14.07-14.02C539.63,313.63,544.34,318.33,549.28,323.25z M573.7,347.58
				c-7.64-7.61-14.96-14.91-21.86-21.78L573.7,347.58z M608.19,381.95l-22.2-22.12C593.21,367.02,600.64,374.43,608.19,381.95z
				 M630.88,404.56c-7.62-7.59-15.21-15.16-22.7-22.62L630.88,404.56z M631.05,404.72l45.81,45.65
				c-12.77-12.73-26.02-25.92-39.26-39.12C635.42,409.08,633.23,406.9,631.05,404.72z M512.73,286.83l-3.16-3.15
				C510.58,284.68,511.63,285.73,512.73,286.83z M498.35,272.5c-0.68-0.68-1.23-1.22-1.64-1.63L498.35,272.5z M509.51,283.62
				c-3.24-3.22-5.95-5.93-8.09-8.07L509.51,283.62z M520.29,294.36c-1.53-1.53-3.01-3-4.42-4.4L520.29,294.36z M496.57,270.73
				c-0.48-0.47-0.73-0.73-0.73-0.73L496.57,270.73z M501.41,275.55c-0.9-0.9-1.7-1.69-2.39-2.38L501.41,275.55z M515.87,289.96
				c-1.08-1.08-2.13-2.13-3.14-3.13L515.87,289.96z M769.9,543.09l-2.33-2.32C768.39,541.58,769.17,542.36,769.9,543.09z
				 M702.94,476.37l-13.12-13.08C694.28,467.74,698.67,472.1,702.94,476.37z M753.97,527.21c-1.15-1.15-2.33-2.32-3.55-3.54
				L753.97,527.21z M777.44,550.6l1.4,1.4C778.84,552,778.36,551.52,777.44,550.6z M776.11,549.28c-0.36-0.36-0.75-0.75-1.18-1.17
				L776.11,549.28z M777.44,550.6l-1.33-1.32C776.63,549.79,777.07,550.23,777.44,550.6z M760.25,533.48l-4.2-4.18
				C757.52,530.75,758.91,532.14,760.25,533.48z M767.57,540.77c-2.16-2.16-4.62-4.6-7.32-7.29L767.57,540.77z M717.2,490.58
				l-9.62-9.58C710.87,484.26,714.07,487.46,717.2,490.58z M717.2,490.58l5.42,5.4C720.85,494.21,719.03,492.4,717.2,490.58z
				 M728.38,501.71l18.53,18.47C741.29,514.58,735.06,508.37,728.38,501.71z M728.38,501.71l-3.83-3.82
				C725.84,499.18,727.11,500.45,728.38,501.71z M773.49,546.67c-0.53-0.53-1.09-1.09-1.7-1.69L773.49,546.67z M771.8,544.98
				c-0.59-0.59-1.23-1.22-1.89-1.89L771.8,544.98z"/>
		</g>
		<g class="st2">
			<path class="st4" d="M495.84,270C495.84,270,495.84,270,495.84,270L495.84,270L495.84,270z M495.84,270L495.84,270
				C495.84,270,495.84,270,495.84,270L495.84,270z M495.85,270C495.85,270,495.85,270,495.85,270L495.85,270L495.85,270z
				 M495.85,270l0.73,0.73C496.12,270.28,495.87,270.02,495.85,270L495.85,270z M496.71,270.87c0.41,0.41,0.95,0.95,1.64,1.63
				L496.71,270.87L496.71,270.87z M499.02,273.17l1.65,1.65C500.07,274.21,499.52,273.66,499.02,273.17L499.02,273.17z
				 M500.67,274.81c0.24,0.24,0.48,0.48,0.74,0.74L500.67,274.81L500.67,274.81z M501.41,275.55l8.09,8.07
				C506.27,280.39,503.56,277.69,501.41,275.55L501.41,275.55z M509.57,283.68l0.85,0.85C510.13,284.24,509.85,283.96,509.57,283.68
				L509.57,283.68z M510.42,284.53c0.75,0.74,1.52,1.51,2.31,2.3L510.42,284.53L510.42,284.53z M512.73,286.83l1.62,1.61
				C513.8,287.89,513.26,287.35,512.73,286.83L512.73,286.83z M514.35,288.44c0.5,0.5,1.01,1,1.52,1.52L514.35,288.44L514.35,288.44
				z M515.87,289.96l2.82,2.81C517.73,291.81,516.79,290.87,515.87,289.96L515.87,289.96z M518.69,292.77
				c0.52,0.52,1.06,1.05,1.6,1.59L518.69,292.77L518.69,292.77z M535.21,309.23l13.67,13.63
				C544.09,318.07,539.51,313.51,535.21,309.23L535.21,309.23z M548.89,322.86c0.13,0.13,0.27,0.26,0.4,0.4L548.89,322.86
				L548.89,322.86z M551.84,325.8l21.86,21.78C566.06,339.97,558.74,332.67,551.84,325.8L551.84,325.8z M585.98,359.82l22.2,22.12
				C600.64,374.43,593.21,367.02,585.98,359.82L585.98,359.82z M608.19,381.95c5.82,5.79,11.7,11.66,17.61,17.55L608.19,381.95
				L608.19,381.95z M625.8,399.49l5.09,5.07C629.19,402.87,627.49,401.18,625.8,399.49L625.8,399.49z M631.05,404.72l26.04,25.95
				c-6.46-6.43-12.97-12.92-19.48-19.41C635.42,409.08,633.23,406.9,631.05,404.72L631.05,404.72z M657.08,430.67
				c0.03,0.03,0.06,0.06,0.09,0.09L657.08,430.67L657.08,430.67z M657.18,430.76l0.1,0.1C657.24,430.83,657.21,430.79,657.18,430.76
				L657.18,430.76z M657.27,430.86c6.61,6.59,13.16,13.11,19.59,19.52L657.27,430.86L657.27,430.86z M689.82,463.29l13.12,13.08
				C698.67,472.1,694.28,467.74,689.82,463.29L689.82,463.29z M707.59,481c3.28,3.27,6.48,6.46,9.62,9.58L707.59,481L707.59,481z
				 M717.2,490.58l1.67,1.67C718.32,491.69,717.76,491.14,717.2,490.58L717.2,490.58z M718.88,492.24c1.26,1.26,2.51,2.5,3.75,3.73
				L718.88,492.24L718.88,492.24z M724.54,497.89l3.14,3.13C726.65,499.99,725.6,498.95,724.54,497.89L724.54,497.89z
				 M727.68,501.02c0.23,0.23,0.46,0.46,0.69,0.69L727.68,501.02L727.68,501.02z M728.38,501.71l18.53,18.47
				C741.29,514.58,735.06,508.37,728.38,501.71L728.38,501.71z M750.42,523.68c1.22,1.22,2.39,2.39,3.55,3.54L750.42,523.68
				L750.42,523.68z M756.05,529.29c0.05,0.05,0.1,0.1,0.15,0.15L756.05,529.29L756.05,529.29z M756.2,529.44l0.28,0.28
				C756.39,529.63,756.3,529.53,756.2,529.44L756.2,529.44z M756.48,529.72c1.31,1.3,2.56,2.55,3.77,3.76L756.48,529.72
				L756.48,529.72z M760.25,533.48c2.7,2.69,5.16,5.14,7.32,7.29L760.25,533.48L760.25,533.48z M767.57,540.77
				c0.82,0.81,1.59,1.59,2.33,2.32L767.57,540.77L767.57,540.77z M769.9,543.09l1.89,1.89C771.2,544.38,770.57,543.75,769.9,543.09
				L769.9,543.09z M771.8,544.98l1.7,1.69C772.96,546.14,772.4,545.58,771.8,544.98L771.8,544.98z M774.93,548.1l1.18,1.17
				C775.75,548.92,775.36,548.53,774.93,548.1L774.93,548.1z M776.11,549.28l1.33,1.32C777.07,550.23,776.62,549.79,776.11,549.28
				L776.11,549.28z M777.44,550.6l1.4,1.4C778.81,551.97,778.33,551.49,777.44,550.6L777.44,550.6z M778.84,552
				C778.84,552,778.84,552,778.84,552L778.84,552L778.84,552z M778.84,552L778.84,552C778.84,552,778.84,552,778.84,552L778.84,552z
				 M778.84,552C778.84,552,778.84,552,778.84,552L778.84,552L778.84,552z M778.84,552C778.84,552,778.84,552,778.84,552L778.84,552
				z"/>
		</g>
	</g>
	<g id="Shape_1" class="st1">
	</g>
	<g id="Shape_4" class="st1">
	</g>
	<g id="Shape_5" class="st1">
	</g>
	<g id="Ellipse_2">
		<g>
			<path class="st3" d="M744.4,647.8c-62.1,0-120.49-24.18-164.4-68.1c-43.91-43.91-68.1-102.3-68.1-164.4
				c0-62.1,24.18-120.49,68.1-164.4c43.91-43.91,102.3-68.1,164.4-68.1c62.1,0,120.49,24.18,164.4,68.1
				c43.91,43.91,68.1,102.3,68.1,164.4c0,62.1-24.18,120.49-68.1,164.4C864.89,623.62,806.5,647.8,744.4,647.8z"/>
		</g>
		<g>
			<path class="st4" d="M744.4,186.8c30.85,0,60.77,6.04,88.94,17.95c27.21,11.51,51.65,27.98,72.63,48.97
				c20.99,20.99,37.46,45.43,48.97,72.63c11.91,28.17,17.95,58.09,17.95,88.94s-6.04,60.77-17.95,88.94
				c-11.51,27.21-27.98,51.65-48.97,72.63c-20.99,20.99-45.42,37.46-72.63,48.97c-28.17,11.91-58.09,17.95-88.94,17.95
				s-60.77-6.04-88.94-17.95c-27.21-11.51-51.65-27.99-72.63-48.97c-20.99-20.99-37.46-45.42-48.97-72.63
				c-11.91-28.17-17.95-58.09-17.95-88.94s6.04-60.77,17.95-88.94c11.51-27.21,27.98-51.65,48.97-72.63
				c20.99-20.99,45.42-37.46,72.63-48.97C683.63,192.84,713.55,186.8,744.4,186.8 M744.4,178.8c-130.62,0-236.5,105.88-236.5,236.5
				s105.88,236.5,236.5,236.5s236.5-105.88,236.5-236.5S875.02,178.8,744.4,178.8L744.4,178.8z"/>
		</g>
	</g>
	<path class="st5" d="M744.8,184c0,81.01,0,343.8,0,459.2"/>
	<g id="Layer_5" class="st1">
		<line class="st6" x1="513.6" y1="412" x2="974.4" y2="412"/>
		<line class="st7" x1="454.4" y1="291.2" x2="1031.2" y2="579.2"/>
		<line class="st8" x1="1029.6" y1="291.2" x2="455.2" y2="579.2"/>
		<line class="st9" x1="516.8" y1="436" x2="972" y2="436"/>
		<line class="st9" x1="744" y1="181.4" x2="744" y2="644.8"/>
		<rect id="Frame" x="455.2" y="247.8" class="st10" width="576" height="331.4"/>
	</g>
	<g id="TEXT_LAYER_1_" class="st1">
		<g id="R_1_" class="st2">
			<g id="Left_R_1_">
				<g id="Left_R_2_">
					<path class="st11" d="M619.17,429.65c2.32-3.76,4.42-7.06,6.3-9.9c1.88-2.84,3.78-5.38,5.7-7.62c1.92-2.24,3.94-4.18,6.06-5.82
						c2.12-1.64,4.62-3.1,7.5-4.38v-0.48c-5.84-1.52-11.1-3.66-15.78-6.42c-4.68-2.76-8.68-6.1-12-10.02
						c-3.32-3.92-5.88-8.38-7.68-13.38c-1.8-5-2.7-10.5-2.7-16.5c0-7.68,1.32-14.38,3.96-20.1c2.64-5.72,6.3-10.5,10.98-14.34
						s10.2-6.7,16.56-8.58c6.36-1.88,13.3-2.82,20.82-2.82h51.35v172.05h-20.16v-73.19h-16.56c-3.76,0-7.14,0.46-10.14,1.38
						c-3,0.92-5.8,2.38-8.4,4.38c-2.6,2-5.14,4.58-7.62,7.74c-2.48,3.16-5.04,6.98-7.68,11.46l-28.8,48.23h-24L619.17,429.65z
						 M662.48,327.54c-11.28,0-19.9,2.58-25.86,7.74c-5.96,5.16-8.94,12.34-8.94,21.54c0,5.12,0.88,9.74,2.64,13.86
						c1.76,4.12,4.2,7.6,7.32,10.44c3.12,2.84,6.82,5.02,11.1,6.54c4.28,1.52,8.94,2.28,13.98,2.28h27.36v-62.39H662.48z"/>
				</g>
			</g>
		</g>
		<g id="R" class="st2">
			<g id="Right_R_1_">
				<g id="Right_R_2_">
					<path class="st11" d="M886.59,489.99h-24l-28.79-48.23c-2.64-4.48-5.2-8.3-7.68-11.46c-2.48-3.16-5.02-5.74-7.62-7.74
						c-2.6-2-5.4-3.46-8.4-4.38c-3-0.92-6.38-1.38-10.14-1.38h-16.56v73.19h-20.16V317.94h51.35c7.52,0,14.46,0.94,20.82,2.82
						c6.36,1.88,11.88,4.74,16.56,8.58c4.68,3.84,8.34,8.62,10.98,14.34c2.64,5.72,3.96,12.42,3.96,20.1c0,6-0.9,11.5-2.7,16.5
						c-1.8,5-4.36,9.46-7.68,13.38c-3.32,3.92-7.32,7.26-12,10.02c-4.68,2.76-9.94,4.9-15.78,6.42v0.48
						c2.88,1.28,5.38,2.74,7.5,4.38c2.12,1.64,4.14,3.58,6.06,5.82c1.92,2.24,3.82,4.78,5.7,7.62c1.88,2.84,3.98,6.14,6.3,9.9
						L886.59,489.99z M783.41,336.17v62.39h27.36c5.04,0,9.7-0.76,13.98-2.28c4.28-1.52,7.98-3.7,11.1-6.54
						c3.12-2.84,5.56-6.32,7.32-10.44c1.76-4.12,2.64-8.74,2.64-13.86c0-9.2-2.98-16.38-8.94-21.54
						c-5.96-5.16-14.58-7.74-25.86-7.74H783.41z"/>
				</g>
			</g>
		</g>
	</g>
	<g id="Offset">
		<g>
			<path class="st12" d="M828.68,485.21h-24l-28.8-48.23c-2.64-4.48-5.2-8.3-7.68-11.46c-2.48-3.16-5.02-5.74-7.62-7.74
				c-2.6-2-5.4-3.46-8.4-4.38c-3-0.92-6.38-1.38-10.14-1.38h-16.56v73.19h-20.16V313.15h51.35c7.52,0,14.46,0.94,20.82,2.82
				c6.36,1.88,11.88,4.74,16.56,8.58s8.34,8.62,10.98,14.34c2.64,5.72,3.96,12.42,3.96,20.1c0,6-0.9,11.5-2.7,16.5
				c-1.8,5-4.36,9.46-7.68,13.38c-3.32,3.92-7.32,7.26-12,10.02c-4.68,2.76-9.94,4.9-15.78,6.42v0.48c2.88,1.28,5.38,2.74,7.5,4.38
				c2.12,1.64,4.14,3.58,6.06,5.82c1.92,2.24,3.82,4.78,5.7,7.62c1.88,2.84,3.98,6.14,6.3,9.9L828.68,485.21z M725.49,331.39v62.39
				h27.36c5.04,0,9.7-0.76,13.98-2.28c4.28-1.52,7.98-3.7,11.1-6.54c3.12-2.84,5.56-6.32,7.32-10.44c1.76-4.12,2.64-8.74,2.64-13.86
				c0-9.2-2.98-16.38-8.94-21.54c-5.96-5.16-14.58-7.74-25.86-7.74H725.49z"/>
		</g>
	</g>
	<g id="Middle_Shadow">
		<path id="shadow" class="st13" d="M784.6,475.37l-29.62-49.61c-2.56-4.35-5.08-8.1-7.48-11.16c-2.32-2.96-4.72-5.39-7.12-7.24
			c-2.32-1.78-4.84-3.1-7.5-3.92c-2.72-0.83-5.85-1.26-9.31-1.26h-13.72v73.19h-25.83V297.65h54.19c7.75,0,15.02,0.99,21.62,2.94
			c6.7,1.98,12.6,5.04,17.55,9.11c4.99,4.09,8.94,9.26,11.75,15.34c2.8,6.07,4.22,13.23,4.22,21.29c0,6.3-0.96,12.17-2.87,17.46
			c-1.91,5.3-4.66,10.09-8.18,14.25c-3.51,4.14-7.79,7.72-12.72,10.63c-3.21,1.89-6.71,3.52-10.46,4.86
			c0.87,0.56,1.69,1.13,2.47,1.73c2.26,1.75,4.44,3.84,6.48,6.22c1.98,2.32,3.97,4.97,5.91,7.9c1.89,2.85,4.02,6.21,6.35,9.98
			l34.97,56.04H784.6z M734.37,378.28c4.69,0,9.08-0.71,13.03-2.12c3.9-1.39,7.31-3.39,10.14-5.96c2.8-2.55,5.03-5.73,6.62-9.46
			c1.6-3.75,2.41-8.04,2.41-12.74c0-8.41-2.6-14.76-7.96-19.39c-5.4-4.68-13.48-7.05-24-7.05h-24.76v56.72H734.37z"/>
		<path class="st14" d="M810.2,472.54h-24l-28.8-48.23c-2.64-4.48-5.2-8.3-7.68-11.46c-2.48-3.16-5.02-5.74-7.62-7.74
			c-2.6-2-5.4-3.46-8.4-4.38c-3-0.92-6.38-1.38-10.14-1.38h-16.56v73.19h-20.16V300.48h51.35c7.52,0,14.46,0.94,20.82,2.82
			c6.36,1.88,11.88,4.74,16.56,8.58c4.68,3.84,8.34,8.62,10.98,14.34c2.64,5.72,3.96,12.42,3.96,20.1c0,6-0.9,11.5-2.7,16.5
			c-1.8,5-4.36,9.46-7.68,13.38c-3.32,3.92-7.32,7.26-12,10.02s-9.94,4.9-15.78,6.42v0.48c2.88,1.28,5.38,2.74,7.5,4.38
			c2.12,1.64,4.14,3.58,6.06,5.82c1.92,2.24,3.82,4.78,5.7,7.62c1.88,2.84,3.98,6.14,6.3,9.9L810.2,472.54z M707.02,318.72v62.39
			h27.36c5.04,0,9.7-0.76,13.98-2.28c4.28-1.52,7.98-3.7,11.1-6.54c3.12-2.84,5.56-6.32,7.32-10.44c1.76-4.12,2.64-8.74,2.64-13.86
			c0-9.2-2.98-16.38-8.94-21.54c-5.96-5.16-14.58-7.74-25.86-7.74H707.02z"/>
	</g>
	<g>
		<path class="st15" d="M780.59,473.82l-29.62-49.61c-2.56-4.35-5.08-8.1-7.48-11.16c-2.32-2.96-4.72-5.39-7.12-7.24
			c-2.32-1.78-4.84-3.1-7.5-3.92c-2.72-0.83-5.85-1.26-9.31-1.26h-13.72v73.19h-25.83V296.1h54.19c7.75,0,15.02,0.99,21.62,2.94
			c6.7,1.98,12.6,5.04,17.55,9.11c4.99,4.09,8.94,9.26,11.75,15.34c2.8,6.07,4.22,13.23,4.22,21.29c0,6.3-0.96,12.17-2.87,17.46
			c-1.91,5.3-4.66,10.09-8.18,14.25c-3.51,4.14-7.79,7.72-12.72,10.63c-3.21,1.89-6.71,3.52-10.46,4.86
			c0.87,0.56,1.69,1.13,2.47,1.73c2.26,1.75,4.44,3.84,6.48,6.22c1.98,2.32,3.97,4.97,5.91,7.9c1.89,2.85,4.02,6.21,6.35,9.98
			l34.97,56.04H780.59z M730.37,376.73c4.69,0,9.08-0.71,13.03-2.12c3.9-1.39,7.31-3.39,10.14-5.96c2.8-2.55,5.03-5.73,6.62-9.46
			c1.6-3.75,2.41-8.04,2.41-12.74c0-8.41-2.6-14.76-7.96-19.39c-5.4-4.68-13.48-7.05-24-7.05h-24.76v56.72H730.37z"/>
		<path class="st15" d="M806.19,470.99h-24l-28.8-48.23c-2.64-4.48-5.2-8.3-7.68-11.46c-2.48-3.16-5.02-5.74-7.62-7.74
			c-2.6-2-5.4-3.46-8.4-4.38c-3-0.92-6.38-1.38-10.14-1.38h-16.56v73.19h-20.16V298.93h51.35c7.52,0,14.46,0.94,20.82,2.82
			c6.36,1.88,11.88,4.74,16.56,8.58c4.68,3.84,8.34,8.62,10.98,14.34c2.64,5.72,3.96,12.42,3.96,20.1c0,6-0.9,11.5-2.7,16.5
			c-1.8,5-4.36,9.46-7.68,13.38c-3.32,3.92-7.32,7.26-12,10.02s-9.94,4.9-15.78,6.42v0.48c2.88,1.28,5.38,2.74,7.5,4.38
			c2.12,1.64,4.14,3.58,6.06,5.82c1.92,2.24,3.82,4.78,5.7,7.62c1.88,2.84,3.98,6.14,6.3,9.9L806.19,470.99z M703.01,317.17v62.39
			h27.36c5.04,0,9.7-0.76,13.98-2.28c4.28-1.52,7.98-3.7,11.1-6.54c3.12-2.84,5.56-6.32,7.32-10.44c1.76-4.12,2.64-8.74,2.64-13.86
			c0-9.2-2.98-16.38-8.94-21.54c-5.96-5.16-14.58-7.74-25.86-7.74H703.01z"/>
	</g>
</g>
</svg>
